<?xml version="1.0" encoding="utf-8"?>
<!-- Generator: Adobe Illustrator 25.0.0, SVG Export Plug-In . SVG Version: 6.00 Build 0)  -->
<svg version="1.1" id="Layer_1" xmlns="http://www.w3.org/2000/svg" xmlns:xlink="http://www.w3.org/1999/xlink" x="0px" y="0px"
	 viewBox="0 0 1016 141.95" style="enable-background:new 0 0 1016 141.95;" xml:space="preserve">
<style type="text/css">
	.st0{fill:#231F20;}
	.st1{fill:#FFFFFF;}
	.st2{fill:#EA0029;}
	.st3{fill:#853275;}
	.st4{fill:#2A7DE1;}
	.st5{fill:#00205C;}
</style>
<g>
	<g>
		<path class="st2" d="M642.94,104.67c-3.47,9.73-12.76,16.69-23.69,16.69h-73.21V57.65c0-13.22,10.2-24.06,23.17-25.07
			c-0.95,2.64-1.46,5.49-1.46,8.45V79.6c0,13.89,11.26,25.14,25.14,25.14h48.07C641.63,104.75,642.29,104.72,642.94,104.67z"/>
		<path class="st3" d="M644.4,57.65v38.57c0,2.97-0.51,5.81-1.46,8.45c-0.65,0.05-1.31,0.08-1.98,0.08H592.9
			c-13.88,0-25.14-11.26-25.14-25.14V41.03c0-2.97,0.51-5.81,1.46-8.45c0.65-0.05,1.31-0.08,1.98-0.08h48.07
			C633.14,32.51,644.4,43.77,644.4,57.65z"/>
		<path class="st4" d="M666.11,15.89V79.6c0,13.22-10.2,24.06-23.16,25.07c0.94-2.64,1.46-5.49,1.46-8.45V57.65
			c0-13.88-11.26-25.14-25.14-25.14h-48.07c-0.66,0-1.32,0.02-1.98,0.08c3.47-9.73,12.76-16.69,23.68-16.69H666.11z"/>
		<path class="st1" d="M726.61,76.9l14.42,27.42h-14.83l-13.1-26.3h-11.88v26.3h-13.41V33.33h31.28c13.41,0,22.75,8.84,22.75,22.34
			C741.85,66.44,735.75,74.16,726.61,76.9z M701.22,65.83h16.55c6.4,0,10.66-3.96,10.66-10.16c0-6.2-4.27-10.16-10.66-10.16h-16.55
			V65.83z"/>
		<path class="st1" d="M755.72,55.15c13.74-5,26.51,1.27,31.68,15.49l1.63,4.49l-34.45,12.54c2.84,6.32,9.1,9.55,15.97,7.05
			c6.68-2.43,8.86-7.44,9.26-11.37l11.91,2.15c-1.44,6.14-4.54,14.84-17.24,19.46c-14.12,5.14-28.23-1.83-33.58-16.53
			C735.71,74.11,741.79,60.22,755.72,55.15z M773.9,71.55c-2.93-5.96-8.32-8.32-14.53-6.06c-6.78,2.47-9.04,7.83-7.61,14.12
			L773.9,71.55z"/>
		<path class="st1" d="M845.76,104.32h-12.59v-7.11h-1.42c-2.64,4.27-7.11,8.53-16.05,8.53c-12.59,0-23.16-11.17-23.16-26.61
			s10.56-26.61,23.16-26.61c8.94,0,13.41,4.27,16.05,8.53h1.22V33.23h12.8V104.32z M805.34,79.14c0,9.75,6.09,15.23,13.81,15.23
			c7.92,0,13.81-5.69,13.81-15.23c0-9.55-5.89-15.23-13.81-15.23C811.43,63.9,805.34,69.39,805.34,79.14z"/>
		<path class="st1" d="M903.65,33.23v12.19h-21.53v58.91h-13.41V45.42h-21.53V33.23H903.65z"/>
		<path class="st1" d="M913.71,52.53c13.41,0,22.85,7.82,22.85,20.01v31.79h-12.59v-7.11h-1.42c-1.63,3.35-5.18,8.53-15.84,8.53
			c-11.37,0-18.89-6.09-18.89-15.74c0-8.02,7.01-13.61,16.66-14.62l19.3-2.13v-1.62c0-4.67-3.45-8.73-10.56-8.73
			c-7.11,0-11.17,4.06-13.81,9.75l-10.36-6.3C892.99,60.55,900.3,52.53,913.71,52.53z M909.85,95.18c8.94,0,13.91-5.28,13.91-12.19
			v-1.22l-15.44,1.83c-4.77,0.61-7.11,2.74-7.11,5.69C901.21,92.75,904.16,95.18,909.85,95.18z"/>
		<path class="st1" d="M992.42,53.95v48.65c0,13.81-10.05,23.46-25.9,23.46c-13.81,0-21.63-6.3-26.71-14.22l10.77-6.7
			c2.64,5.18,7.52,9.95,15.13,9.95c7.92,0,13.91-4.06,13.91-13v-6.5h-1.22c-2.64,4.27-7.11,8.53-16.05,8.53
			c-12.59,0-23.16-10.77-23.16-25.8s10.56-25.8,23.16-25.8c8.94,0,13.41,4.27,16.05,8.53h1.42v-7.11H992.42z M979.62,78.32
			c0-9.14-5.89-14.42-13.81-14.42c-7.72,0-13.81,5.08-13.81,14.42s6.09,14.42,13.81,14.42C973.73,92.75,979.62,87.46,979.62,78.32z"
			/>
	</g>
	<g>
		<path class="st1" d="M23.58,36.24h27.04c12.55,0,21.59,7.78,21.59,20.33v1.26c0,12.64-9.43,20.33-21.59,20.33H34.09v26.16h-10.5
			V36.24z M49.55,68.63c7.29,0,12.16-4.08,12.16-10.89v-0.97c0-6.91-4.67-10.99-12.16-10.99H34.09v22.86H49.55z"/>
		<path class="st1" d="M73.97,81.08v-1.46c0-15.17,10.41-24.61,24.8-24.61c14.39,0,24.9,9.43,24.9,24.61v1.46
			c0,15.27-10.5,24.61-24.9,24.61C84.37,105.68,73.97,96.35,73.97,81.08z M113.65,80.79v-0.88c0-9.92-6.03-15.95-14.88-15.95
			c-8.75,0-14.78,6.03-14.78,15.95v0.88c0,10.02,6.03,15.95,14.78,15.95C107.52,96.74,113.65,90.8,113.65,80.79z"/>
		<path class="st1" d="M127.75,56.37h10.02l6.03,41.24h1.56l8.36-41.24h16.24l8.27,41.24h1.56l6.03-41.24h10.02l-8.17,47.95h-16.73
			l-8.36-41.14h-1.56l-8.27,41.14h-16.83L127.75,56.37z"/>
		<path class="st1" d="M199.92,80.98v-1.17c0-14.98,9.82-24.8,23.93-24.8c13.81,0,23.15,9.73,23.15,24.31v3.79h-36.86
			c0.29,8.46,6.22,13.81,14.3,13.81c7.59,0,10.89-3.89,12.94-8.36l8.36,4.28c-2.92,5.54-8.56,12.84-21.49,12.84
			C209.64,105.68,199.92,95.86,199.92,80.98z M236.88,75.44c-0.58-7.2-5.64-11.57-13.13-11.57c-7.59,0-12.55,4.38-13.52,11.57
			H236.88z"/>
		<path class="st1" d="M254.19,56.37h9.82v5.64h1.56c1.56-3.99,4.96-5.84,10.12-5.84h5.74v9.04h-6.13c-6.52,0-11.09,3.5-11.09,10.89
			v28.21h-10.02V56.37z"/>
		<path class="st1" d="M282.88,80.98v-1.17c0-14.98,9.82-24.8,23.93-24.8c13.81,0,23.15,9.73,23.15,24.31v3.79h-36.86
			c0.29,8.46,6.22,13.81,14.3,13.81c7.59,0,10.89-3.89,12.94-8.36l8.36,4.28c-2.92,5.54-8.56,12.84-21.49,12.84
			C292.61,105.68,282.88,95.86,282.88,80.98z M319.84,75.44c-0.58-7.2-5.64-11.57-13.13-11.57c-7.59,0-12.55,4.38-13.52,11.57
			H319.84z"/>
		<path class="st1" d="M334.82,81.08v-1.46c0-15.46,10.11-24.61,22.18-24.61c9.34,0,13.91,3.99,16.15,7.88h1.56V36.24h10.02v68.08
			h-9.82v-6.81h-1.56c-2.43,4.18-7,8.17-16.34,8.17C345.03,105.68,334.82,96.64,334.82,81.08z M374.79,80.79v-0.88
			c0-10.31-6.22-16.05-14.98-16.05c-8.66,0-14.88,5.74-14.88,16.05v0.88c0,10.31,6.32,16.15,14.88,16.15
			C368.47,96.93,374.79,91.1,374.79,80.79z"/>
		<path class="st1" d="M425.95,97.52h-1.56v6.81h-9.82V36.24h10.02v26.65h1.56c2.24-3.89,6.81-7.88,16.15-7.88
			c12.06,0,22.17,9.14,22.17,24.61v1.46c0,15.56-10.21,24.61-22.17,24.61C432.96,105.68,428.38,101.7,425.95,97.52z M454.35,80.79
			v-0.88c0-10.31-6.22-16.05-14.98-16.05c-8.66,0-14.88,5.74-14.88,16.05v0.88c0,10.31,6.32,16.15,14.88,16.15
			C448.03,96.93,454.35,91.1,454.35,80.79z"/>
		<path class="st1" d="M470.01,115.22h8.95c2.72,0,3.6-0.88,4.47-2.92l1.85-4.38l-20.13-51.55h10.89l13.42,36.96h1.46l13.42-36.96
			h10.89l-23.34,59.62c-2.04,5.35-4.67,7.78-11.77,7.78h-10.12V115.22z"/>
	</g>
</g>
</svg>
